<svg xmlns="http://www.w3.org/2000/svg" xmlns:xlink="http://www.w3.org/1999/xlink" width="20" height="20" viewBox="0 0 20 20"><defs><path id="ebtha" d="M416.199 7092.998c0-1.455.12-4.578-.402-5.894a3.374 3.374 0 0 0-1.9-1.901c-1.313-.518-4.44-.402-5.895-.402-1.454 0-4.578-.12-5.894.402a3.374 3.374 0 0 0-1.9 1.9c-.518 1.312-.402 4.44-.402 5.895 0 1.454-.12 4.577.401 5.894a3.374 3.374 0 0 0 1.901 1.9c1.312.518 4.44.402 5.894.402 1.455 0 4.578.12 5.894-.402a3.374 3.374 0 0 0 1.9-1.9c.523-1.312.403-4.44.403-5.894zm1.73-4.123c.094 1.65.094 6.594 0 8.245-.08 1.602-.445 3.02-1.614 4.19-1.17 1.173-2.588 1.54-4.19 1.615-1.651.094-6.6.094-8.25 0-1.602-.08-3.016-.446-4.19-1.615-1.173-1.17-1.539-2.588-1.615-4.19-.093-1.65-.093-6.599 0-8.25.08-1.601.442-3.02 1.615-4.19 1.174-1.168 2.593-1.534 4.19-1.61 1.65-.094 6.599-.094 8.25 0 1.602.08 3.02.446 4.19 1.615 1.173 1.17 1.539 2.588 1.615 4.19zm-3.395-1.214c0 .665-.535 1.196-1.196 1.196a1.196 1.196 0 1 1 1.196-1.196zm-3.199 5.337a3.336 3.336 0 0 0-3.333-3.333 3.336 3.336 0 0 0-3.333 3.333c0 1.838 1.5 3.333 3.333 3.333a3.339 3.339 0 0 0 3.333-3.333zm1.794 0a5.118 5.118 0 0 1-5.127 5.126 5.118 5.118 0 0 1-5.126-5.126 5.118 5.118 0 0 1 5.126-5.127 5.118 5.118 0 0 1 5.127 5.127z"/></defs><g><g transform="translate(-398 -7083)"><use fill="#fff" xlink:href="#ebtha"/></g></g></svg>