<svg xmlns="http://www.w3.org/2000/svg" xmlns:xlink="http://www.w3.org/1999/xlink"><defs><path id="ebtha" d="M416.199 7092.998c0-1.455.12-4.578-.402-5.894a3.374 3.374 0 0 0-1.9-1.901c-1.313-.518-4.44-.402-5.895-.402-1.454 0-4.578-.12-5.894.402a3.374 3.374 0 0 0-1.9 1.9c-.518 1.312-.402 4.44-.402 5.895 0 1.454-.12 4.577.401 5.894a3.374 3.374 0 0 0 1.901 1.9c1.312.518 4.44.402 5.894.402 1.455 0 4.578.12 5.894-.402a3.374 3.374 0 0 0 1.9-1.9c.523-1.312.403-4.44.403-5.894zm1.73-4.123c.094 1.65.094 6.594 0 8.245-.08 1.602-.445 3.02-1.614 4.19-1.17 1.173-2.588 1.54-4.19 1.615-1.651.094-6.6.094-8.25 0-1.602-.08-3.016-.446-4.19-1.615-1.173-1.17-1.539-2.588-1.615-4.19-.093-1.65-.093-6.599 0-8.25.08-1.601.442-3.02 1.615-4.19 1.174-1.168 2.593-1.534 4.19-1.61 1.65-.094 6.599-.094 8.25 0 1.602.08 3.02.446 4.19 1.615 1.173 1.17 1.539 2.588 1.615 4.19zm-3.395-1.214c0 .665-.535 1.196-1.196 1.196a1.196 1.196 0 1 1 1.196-1.196zm-3.199 5.337a3.336 3.336 0 0 0-3.333-3.333 3.336 3.336 0 0 0-3.333 3.333c0 1.838 1.5 3.333 3.333 3.333a3.339 3.339 0 0 0 3.333-3.333zm1.794 0a5.118 5.118 0 0 1-5.127 5.126 5.118 5.118 0 0 1-5.126-5.126 5.118 5.118 0 0 1 5.126-5.127 5.118 5.118 0 0 1 5.127 5.127z"/></defs><symbol id="fb" viewBox="0 0 96.124 96.123">
<g>
	<path d="M72.089,0.02L59.624,0C45.62,0,36.57,9.285,36.57,23.656v10.907H24.037c-1.083,0-1.96,0.878-1.96,1.961v15.803
		c0,1.083,0.878,1.96,1.96,1.96h12.533v39.876c0,1.083,0.877,1.96,1.96,1.96h16.352c1.083,0,1.96-0.878,1.96-1.96V54.287h14.654
		c1.083,0,1.96-0.877,1.96-1.96l0.006-15.803c0-0.52-0.207-1.018-0.574-1.386c-0.367-0.368-0.867-0.575-1.387-0.575H56.842v-9.246
		c0-4.444,1.059-6.7,6.848-6.7l8.397-0.003c1.082,0,1.959-0.878,1.959-1.96V1.98C74.046,0.899,73.17,0.022,72.089,0.02z"/>
</g>
<g>
</g>
<g>
</g>
<g>
</g>
<g>
</g>
<g>
</g>
<g>
</g>
<g>
</g>
<g>
</g>
<g>
</g>
<g>
</g>
<g>
</g>
<g>
</g>
<g>
</g>
<g>
</g>
<g>
</g>
</symbol><symbol id="ig" viewBox="0 0 20 20"><g><g transform="translate(-398 -7083)"><use xlink:href="#ebtha"/></g></g></symbol><symbol id="mouse" viewBox="0 0 401.396 401.396">
  <path d="m200.698,0c-68.997,0-125.13,56.133-125.13,125.129v151.137c0,68.997 56.133,125.129 125.13,125.129s125.129-56.133 125.129-125.129v-151.137c0-68.996-56.132-125.129-125.129-125.129zm110.129,125.129v1.973c-32.303,16.982-68.429,26.282-105.133,27.057v-41.835c10.585-2.298 18.539-11.734 18.539-22.997v-31.367c0-11.263-7.954-20.699-18.539-22.997v-19.845c58.416,2.622 105.133,50.961 105.133,110.011zm-110.129-80.705c7.463-7.10543e-15 13.536,6.072 13.536,13.536v31.368c0,7.463-6.072,13.536-13.536,13.536s-13.536-6.072-13.536-13.536v-31.368c0-7.463 6.073-13.536 13.536-13.536zm-5.003-29.305v19.846c-10.581,2.301-18.532,11.735-18.532,22.995v31.368c0,11.26 7.951,20.694 18.532,22.995v41.837c-36.699-0.775-72.823-10.076-105.126-27.059v-1.971c-0.001-59.049 46.714-107.386 105.126-110.011zm5.003,371.277c-60.726-5.68434e-14-110.13-49.404-110.13-110.129v-137.928c34.015,16.958 71.851,25.88 110.126,25.88 38.28,0 76.118-8.921 110.133-25.878v137.925c0,60.726-49.403,110.13-110.129,110.13z"/>
</symbol><symbol id="twitter" viewBox="0 0 512 512"><g><g>
	<g>
		<path d="M512,97.248c-19.04,8.352-39.328,13.888-60.48,16.576c21.76-12.992,38.368-33.408,46.176-58.016    c-20.288,12.096-42.688,20.64-66.56,25.408C411.872,60.704,384.416,48,354.464,48c-58.112,0-104.896,47.168-104.896,104.992    c0,8.32,0.704,16.32,2.432,23.936c-87.264-4.256-164.48-46.08-216.352-109.792c-9.056,15.712-14.368,33.696-14.368,53.056    c0,36.352,18.72,68.576,46.624,87.232c-16.864-0.32-33.408-5.216-47.424-12.928c0,0.32,0,0.736,0,1.152    c0,51.008,36.384,93.376,84.096,103.136c-8.544,2.336-17.856,3.456-27.52,3.456c-6.72,0-13.504-0.384-19.872-1.792    c13.6,41.568,52.192,72.128,98.08,73.12c-35.712,27.936-81.056,44.768-130.144,44.768c-8.608,0-16.864-0.384-25.12-1.44    C46.496,446.88,101.6,464,161.024,464c193.152,0,298.752-160,298.752-298.688c0-4.64-0.16-9.12-0.384-13.568    C480.224,136.96,497.728,118.496,512,97.248z" data-original="#000000" class="active-path" data-old_color="#000000"/>
	</g>
</g></g> </symbol><symbol id="youtube" viewBox="0 0 511.627 511.627"><g><g>
	<g>
		<path d="M459.954,264.376c-2.471-11.233-7.949-20.653-16.416-28.264c-8.474-7.611-18.227-12.085-29.27-13.418    c-35.02-3.806-87.837-5.708-158.457-5.708c-70.618,0-123.341,1.903-158.174,5.708c-11.227,1.333-21.029,5.807-29.407,13.418    c-8.376,7.614-13.896,17.035-16.562,28.264c-4.948,22.083-7.423,55.391-7.423,99.931c0,45.299,2.475,78.61,7.423,99.93    c2.478,11.225,7.951,20.653,16.421,28.261c8.47,7.614,18.225,11.991,29.263,13.134c35.026,3.997,87.847,5.996,158.461,5.996    c70.609,0,123.44-1.999,158.453-5.996c11.043-1.143,20.748-5.52,29.126-13.134c8.377-7.607,13.897-17.036,16.56-28.261    c4.948-22.083,7.426-55.391,7.426-99.93C467.377,319.007,464.899,285.695,459.954,264.376z M165.025,293.218h-30.549v162.45    h-28.549v-162.45h-29.98v-26.837h89.079V293.218z M242.11,455.668H216.7v-15.421c-10.278,11.615-19.989,17.419-29.125,17.419    c-8.754,0-14.275-3.524-16.556-10.564c-1.521-4.568-2.286-11.519-2.286-20.844V314.627h25.41v103.924    c0,6.088,0.096,9.421,0.288,9.993c0.571,3.997,2.568,5.995,5.996,5.995c5.138,0,10.566-3.997,16.274-11.991V314.627h25.41V455.668    z M339.183,413.411c0,13.894-0.855,23.417-2.56,28.558c-3.244,10.462-9.996,15.697-20.273,15.697    c-9.137,0-17.986-5.235-26.556-15.697v13.702h-25.406v-189.29h25.406v61.955c8.189-10.273,17.036-15.413,26.556-15.413    c10.277,0,17.029,5.331,20.273,15.988c1.704,4.948,2.56,14.369,2.56,28.264V413.411z M435.685,390.003h-51.104v24.839    c0,13.134,4.374,19.697,13.131,19.697c6.279,0,10.089-3.422,11.42-10.28c0.376-1.902,0.571-7.706,0.571-17.412h25.981v3.71    c0,9.329-0.195,14.846-0.572,16.563c-0.567,5.133-2.56,10.273-5.995,15.413c-6.852,10.089-17.139,15.133-30.841,15.133    c-13.127,0-23.407-4.855-30.833-14.558c-5.517-7.043-8.275-18.083-8.275-33.12v-49.396c0-15.036,2.662-26.076,7.987-33.119    c7.427-9.705,17.61-14.558,30.557-14.558c12.755,0,22.85,4.853,30.263,14.558c5.146,7.043,7.71,18.083,7.71,33.119V390.003    L435.685,390.003z" data-original="#000000" class="active-path" data-old_color="#000000"/>
		<path d="M302.634,336.043c-4.38,0-8.658,2.101-12.847,6.283v85.934c4.188,4.186,8.467,6.279,12.847,6.279    c7.419,0,11.14-6.372,11.14-19.13v-60.236C313.773,342.418,310.061,336.043,302.634,336.043z" data-original="#000000" class="active-path" data-old_color="#000000"/>
		<path d="M397.428,336.043c-8.565,0-12.847,6.475-12.847,19.41v13.134h25.693v-13.134    C410.274,342.511,405.99,336.043,397.428,336.043z" data-original="#000000" class="active-path" data-old_color="#000000"/>
		<path d="M148.473,113.917v77.375h28.549v-77.375L211.563,0h-29.121l-19.41,75.089L142.759,0h-30.262    c5.33,15.99,11.516,33.785,18.559,53.391C140.003,79.656,145.805,99.835,148.473,113.917z" data-original="#000000" class="active-path" data-old_color="#000000"/>
		<path d="M249.82,193.291c13.134,0,23.219-4.854,30.262-14.561c5.332-7.043,7.994-18.274,7.994-33.689V95.075    c0-15.225-2.669-26.363-7.994-33.406c-7.043-9.707-17.128-14.561-30.262-14.561c-12.756,0-22.75,4.854-29.98,14.561    c-5.327,7.043-7.992,18.181-7.992,33.406v49.965c0,15.225,2.662,26.457,7.992,33.689    C227.073,188.437,237.063,193.291,249.82,193.291z M237.541,89.935c0-13.134,4.093-19.701,12.279-19.701    s12.275,6.567,12.275,19.701v59.955c0,13.328-4.089,19.985-12.275,19.985s-12.279-6.661-12.279-19.985V89.935z" data-original="#000000" class="active-path" data-old_color="#000000"/>
		<path d="M328.328,193.291c9.523,0,19.328-5.901,29.413-17.705v15.703h25.981V48.822h-25.981v108.777    c-5.712,8.186-11.133,12.275-16.279,12.275c-3.429,0-5.428-2.093-5.996-6.28c-0.191-0.381-0.287-3.715-0.287-9.994V48.822h-25.981    v112.492c0,9.705,0.767,16.84,2.286,21.411C313.961,189.768,319.574,193.291,328.328,193.291z" data-original="#000000" class="active-path" data-old_color="#000000"/>
	</g>
</g></g> </symbol></svg>